<svg width="24" height="24" viewBox="0 0 24 24" fill="none" xmlns="http://www.w3.org/2000/svg">
<path d="M12 16C14.2091 16 16 14.2091 16 12C16 9.79086 14.2091 8 12 8C9.79086 8 8 9.79086 8 12C8 14.2091 9.79086 16 12 16Z" stroke="#114B5F" stroke-width="2" stroke-linecap="round" stroke-linejoin="round"/>
<path d="M16 8.00011V13.0001C16 13.7958 16.3161 14.5588 16.8787 15.1214C17.4413 15.684 18.2044 16.0001 19 16.0001C19.7957 16.0001 20.5587 15.684 21.1213 15.1214C21.6839 14.5588 22 13.7958 22 13.0001V12.0001C21.9999 9.74314 21.2362 7.55259 19.8333 5.78464C18.4303 4.0167 16.4706 2.77534 14.2726 2.26241C12.0747 1.74948 9.76794 1.99515 7.72735 2.95948C5.68676 3.9238 4.0324 5.55007 3.03326 7.57383C2.03412 9.5976 1.74897 11.8998 2.22417 14.1062C2.69937 16.3126 3.90698 18.2933 5.65063 19.7264C7.39429 21.1594 9.57143 21.9605 11.8281 21.9993C14.0847 22.0381 16.2881 21.3124 18.08 19.9401" stroke="#114B5F" stroke-width="2" stroke-linecap="round" stroke-linejoin="round"/>
</svg>
