<svg viewBox="0 0 257 250" fill="none" xmlns="http://www.w3.org/2000/svg">
<circle cx="125" cy="125" r="125" fill="#114B5F"/>
<g filter="url(#filter0_d)">
<g filter="url(#filter1_d)">
<path d="M122.917 54.0834C82.6459 54.0834 50 86.7293 50 127C50 167.271 82.6459 199.917 122.917 199.917C163.187 199.917 195.833 167.271 195.833 127C195.833 86.7293 163.187 54.0834 122.917 54.0834Z" fill="#1A936F"/>
<path d="M122.917 87C122.917 59.3858 145.302 37 172.917 37C200.531 37 222.917 59.3858 222.917 87C222.917 114.614 200.531 137 172.917 137C145.302 137 122.917 114.614 122.917 87Z" fill="#1A936F"/>
</g>
<g filter="url(#filter2_d)">
<path d="M173 112V62M198 87H148" stroke="white" stroke-width="6" stroke-linecap="round" stroke-linejoin="round"/>
</g>
</g>
<g filter="url(#filter3_d)">
<path d="M124.1 166C118.7 166 113.467 165.233 108.4 163.7C103.4 162.167 99.4333 160.133 96.5 157.6L101 147.5C103.867 149.767 107.367 151.633 111.5 153.1C115.7 154.5 119.9 155.2 124.1 155.2C129.3 155.2 133.167 154.367 135.7 152.7C138.3 151.033 139.6 148.833 139.6 146.1C139.6 144.1 138.867 142.467 137.4 141.2C136 139.867 134.2 138.833 132 138.1C129.8 137.367 126.8 136.533 123 135.6C117.667 134.333 113.333 133.067 110 131.8C106.733 130.533 103.9 128.567 101.5 125.9C99.1667 123.167 98 119.5 98 114.9C98 111.033 99.0333 107.533 101.1 104.4C103.233 101.2 106.4 98.6667 110.6 96.8C114.867 94.9333 120.067 94 126.2 94C130.467 94 134.667 94.5333 138.8 95.6C142.933 96.6667 146.5 98.2 149.5 100.2L145.4 110.3C142.333 108.5 139.133 107.133 135.8 106.2C132.467 105.267 129.233 104.8 126.1 104.8C120.967 104.8 117.133 105.667 114.6 107.4C112.133 109.133 110.9 111.433 110.9 114.3C110.9 116.3 111.6 117.933 113 119.2C114.467 120.467 116.3 121.467 118.5 122.2C120.7 122.933 123.7 123.767 127.5 124.7C132.7 125.9 136.967 127.167 140.3 128.5C143.633 129.767 146.467 131.733 148.8 134.4C151.2 137.067 152.4 140.667 152.4 145.2C152.4 149.067 151.333 152.567 149.2 155.7C147.133 158.833 143.967 161.333 139.7 163.2C135.433 165.067 130.233 166 124.1 166Z" fill="white"/>
</g>
<defs>
<filter id="filter0_d" x="30" y="17" width="212.917" height="202.917" filterUnits="userSpaceOnUse" color-interpolation-filters="sRGB">
<feFlood flood-opacity="0" result="BackgroundImageFix"/>
<feColorMatrix in="SourceAlpha" type="matrix" values="0 0 0 0 0 0 0 0 0 0 0 0 0 0 0 0 0 0 127 0"/>
<feOffset/>
<feGaussianBlur stdDeviation="10"/>
<feColorMatrix type="matrix" values="0 0 0 0 0 0 0 0 0 0 0 0 0 0 0 0 0 0 0.5 0"/>
<feBlend mode="normal" in2="BackgroundImageFix" result="effect1_dropShadow"/>
<feBlend mode="normal" in="SourceGraphic" in2="effect1_dropShadow" result="shape"/>
</filter>
<filter id="filter1_d" x="46" y="33" width="180.917" height="170.917" filterUnits="userSpaceOnUse" color-interpolation-filters="sRGB">
<feFlood flood-opacity="0" result="BackgroundImageFix"/>
<feColorMatrix in="SourceAlpha" type="matrix" values="0 0 0 0 0 0 0 0 0 0 0 0 0 0 0 0 0 0 127 0"/>
<feOffset/>
<feGaussianBlur stdDeviation="2"/>
<feColorMatrix type="matrix" values="0 0 0 0 0 0 0 0 0 0 0 0 0 0 0 0 0 0 0.25 0"/>
<feBlend mode="normal" in2="BackgroundImageFix" result="effect1_dropShadow"/>
<feBlend mode="normal" in="SourceGraphic" in2="effect1_dropShadow" result="shape"/>
</filter>
<filter id="filter2_d" x="125" y="39" width="96" height="96" filterUnits="userSpaceOnUse" color-interpolation-filters="sRGB">
<feFlood flood-opacity="0" result="BackgroundImageFix"/>
<feColorMatrix in="SourceAlpha" type="matrix" values="0 0 0 0 0 0 0 0 0 0 0 0 0 0 0 0 0 0 127 0"/>
<feOffset/>
<feGaussianBlur stdDeviation="10"/>
<feColorMatrix type="matrix" values="0 0 0 0 0 0 0 0 0 0 0 0 0 0 0 0 0 0 0.5 0"/>
<feBlend mode="normal" in2="BackgroundImageFix" result="effect1_dropShadow"/>
<feBlend mode="normal" in="SourceGraphic" in2="effect1_dropShadow" result="shape"/>
</filter>
<filter id="filter3_d" x="76.5" y="74" width="95.9" height="112" filterUnits="userSpaceOnUse" color-interpolation-filters="sRGB">
<feFlood flood-opacity="0" result="BackgroundImageFix"/>
<feColorMatrix in="SourceAlpha" type="matrix" values="0 0 0 0 0 0 0 0 0 0 0 0 0 0 0 0 0 0 127 0"/>
<feOffset/>
<feGaussianBlur stdDeviation="10"/>
<feColorMatrix type="matrix" values="0 0 0 0 0 0 0 0 0 0 0 0 0 0 0 0 0 0 0.5 0"/>
<feBlend mode="normal" in2="BackgroundImageFix" result="effect1_dropShadow"/>
<feBlend mode="normal" in="SourceGraphic" in2="effect1_dropShadow" result="shape"/>
</filter>
</defs>
</svg>
